<mxfile host="Electron" agent="Mozilla/5.0 (Windows NT 10.0; Win64; x64) AppleWebKit/537.36 (KHTML, like Gecko) draw.io/25.0.2 Chrome/128.0.6613.186 Electron/32.2.5 Safari/537.36" version="25.0.2">
  <diagram name="Page-1" id="QbVM-qhq_BF2LXNoguQ5">
    <mxGraphModel dx="755" dy="440" grid="1" gridSize="10" guides="1" tooltips="1" connect="1" arrows="1" fold="1" page="1" pageScale="1" pageWidth="850" pageHeight="1100" math="0" shadow="0">
      <root>
        <mxCell id="0" />
        <mxCell id="1" parent="0" />
        <mxCell id="mEob46jThGOG9od_VYb--475" value="&lt;font color=&quot;#000000&quot; style=&quot;font-size: 20px;&quot;&gt;Buildplan: &lt;b style=&quot;&quot;&gt;FL Actors&lt;/b&gt;&lt;/font&gt;&lt;div&gt;&lt;font color=&quot;#000000&quot; style=&quot;font-size: 20px;&quot;&gt;( Aggregator &amp;amp; Learner )&lt;/font&gt;&lt;/div&gt;" style="rounded=0;whiteSpace=wrap;html=1;fillColor=#FFFFFF;strokeColor=#36393d;fontStyle=0;fontFamily=CMU Sans Serif;" vertex="1" parent="1">
          <mxGeometry x="200" y="260" width="230" height="70" as="geometry" />
        </mxCell>
        <mxCell id="mEob46jThGOG9od_VYb--477" value="&lt;font color=&quot;#000000&quot; style=&quot;font-size: 20px;&quot;&gt;Buildplan:&lt;/font&gt;&lt;div&gt;&lt;font color=&quot;#000000&quot; style=&quot;font-size: 20px;&quot;&gt;&lt;b style=&quot;&quot;&gt;Trained Model&lt;/b&gt;&lt;/font&gt;&lt;/div&gt;" style="rounded=0;whiteSpace=wrap;html=1;fillColor=#FFFFFF;strokeColor=#36393d;fontStyle=0;fontFamily=CMU Sans Serif;" vertex="1" parent="1">
          <mxGeometry x="450" y="260" width="230" height="70" as="geometry" />
        </mxCell>
        <mxCell id="mEob46jThGOG9od_VYb--478" style="edgeStyle=orthogonalEdgeStyle;rounded=0;orthogonalLoop=1;jettySize=auto;html=1;entryX=0.5;entryY=0;entryDx=0;entryDy=0;exitX=0;exitY=0.5;exitDx=0;exitDy=0;strokeWidth=3;fontFamily=CMU Sans Serif;" edge="1" parent="1" source="mEob46jThGOG9od_VYb--467" target="mEob46jThGOG9od_VYb--475">
          <mxGeometry relative="1" as="geometry" />
        </mxCell>
        <mxCell id="mEob46jThGOG9od_VYb--479" style="edgeStyle=orthogonalEdgeStyle;rounded=0;orthogonalLoop=1;jettySize=auto;html=1;exitX=1;exitY=0.5;exitDx=0;exitDy=0;strokeWidth=3;fontFamily=CMU Sans Serif;" edge="1" parent="1" source="mEob46jThGOG9od_VYb--467" target="mEob46jThGOG9od_VYb--477">
          <mxGeometry relative="1" as="geometry" />
        </mxCell>
        <mxCell id="mEob46jThGOG9od_VYb--480" value="&lt;font color=&quot;#000000&quot;&gt;&lt;span style=&quot;font-size: 20px;&quot;&gt;Git ML Code&lt;br&gt;Repository&lt;/span&gt;&lt;/font&gt;" style="rounded=0;whiteSpace=wrap;html=1;fillColor=#FFFFFF;strokeColor=#36393d;fontStyle=0;fontFamily=CMU Sans Serif;shape=cylinder3;boundedLbl=1;backgroundOutline=1;size=15;" vertex="1" parent="1">
          <mxGeometry x="200" y="360" width="135" height="90" as="geometry" />
        </mxCell>
        <mxCell id="mEob46jThGOG9od_VYb--484" style="edgeStyle=orthogonalEdgeStyle;rounded=0;orthogonalLoop=1;jettySize=auto;html=1;entryX=0.295;entryY=1.011;entryDx=0;entryDy=0;entryPerimeter=0;strokeWidth=3;fontFamily=CMU Sans Serif;" edge="1" parent="1" source="mEob46jThGOG9od_VYb--480" target="mEob46jThGOG9od_VYb--475">
          <mxGeometry relative="1" as="geometry" />
        </mxCell>
        <mxCell id="mEob46jThGOG9od_VYb--485" value="&lt;font color=&quot;#000000&quot;&gt;&lt;span style=&quot;font-size: 20px;&quot;&gt;FLOps&lt;/span&gt;&lt;/font&gt;&lt;div&gt;&lt;font color=&quot;#000000&quot;&gt;&lt;span style=&quot;font-size: 20px;&quot;&gt;Image Registry&lt;/span&gt;&lt;/font&gt;&lt;/div&gt;" style="rounded=0;whiteSpace=wrap;html=1;fillColor=#FFFFFF;strokeColor=#36393d;fontStyle=0;fontFamily=CMU Sans Serif;shape=cylinder3;boundedLbl=1;backgroundOutline=1;size=15;" vertex="1" parent="1">
          <mxGeometry x="372.5" y="360" width="135" height="90" as="geometry" />
        </mxCell>
        <mxCell id="mEob46jThGOG9od_VYb--486" value="&lt;font color=&quot;#000000&quot;&gt;&lt;span style=&quot;font-size: 20px;&quot;&gt;FLOps&lt;br&gt;Model Storage&lt;/span&gt;&lt;/font&gt;" style="rounded=0;whiteSpace=wrap;html=1;fillColor=#FFFFFF;strokeColor=#36393d;fontStyle=0;fontFamily=CMU Sans Serif;shape=cylinder3;boundedLbl=1;backgroundOutline=1;size=15;" vertex="1" parent="1">
          <mxGeometry x="545" y="360" width="135" height="90" as="geometry" />
        </mxCell>
        <mxCell id="mEob46jThGOG9od_VYb--487" style="edgeStyle=orthogonalEdgeStyle;rounded=0;orthogonalLoop=1;jettySize=auto;html=1;exitX=0.909;exitY=1.004;exitDx=0;exitDy=0;exitPerimeter=0;strokeWidth=3;entryX=0.272;entryY=0.013;entryDx=0;entryDy=0;entryPerimeter=0;fontFamily=CMU Sans Serif;" edge="1" parent="1" source="mEob46jThGOG9od_VYb--475" target="mEob46jThGOG9od_VYb--485">
          <mxGeometry relative="1" as="geometry">
            <mxPoint x="409" y="360" as="targetPoint" />
          </mxGeometry>
        </mxCell>
        <mxCell id="mEob46jThGOG9od_VYb--488" style="edgeStyle=orthogonalEdgeStyle;rounded=0;orthogonalLoop=1;jettySize=auto;html=1;entryX=0.088;entryY=0.998;entryDx=0;entryDy=0;entryPerimeter=0;strokeWidth=3;exitX=0.723;exitY=0.016;exitDx=0;exitDy=0;exitPerimeter=0;fontFamily=CMU Sans Serif;" edge="1" parent="1" source="mEob46jThGOG9od_VYb--485" target="mEob46jThGOG9od_VYb--477">
          <mxGeometry relative="1" as="geometry">
            <mxPoint x="470" y="360" as="sourcePoint" />
            <Array as="points">
              <mxPoint x="470" y="360" />
              <mxPoint x="470" y="360" />
            </Array>
          </mxGeometry>
        </mxCell>
        <mxCell id="mEob46jThGOG9od_VYb--489" style="edgeStyle=orthogonalEdgeStyle;rounded=0;orthogonalLoop=1;jettySize=auto;html=1;entryX=0.707;entryY=0.992;entryDx=0;entryDy=0;entryPerimeter=0;strokeWidth=3;fontFamily=CMU Sans Serif;" edge="1" parent="1" source="mEob46jThGOG9od_VYb--486" target="mEob46jThGOG9od_VYb--477">
          <mxGeometry relative="1" as="geometry" />
        </mxCell>
        <mxCell id="mEob46jThGOG9od_VYb--470" value="Worker Node" style="text;align=center;verticalAlign=middle;resizable=0;points=[];autosize=1;strokeColor=none;fillColor=none;fontStyle=0;fontSize=20;fontFamily=CMU Sans Serif;" vertex="1" parent="1">
          <mxGeometry x="375.00000000000006" y="80" width="130" height="40" as="geometry" />
        </mxCell>
        <mxCell id="mEob46jThGOG9od_VYb--464" value="" style="rounded=0;whiteSpace=wrap;html=1;fontStyle=0;fontFamily=CMU Sans Serif;fillColor=#666666;" vertex="1" parent="1">
          <mxGeometry x="360" y="120" width="160" height="120" as="geometry" />
        </mxCell>
        <mxCell id="mEob46jThGOG9od_VYb--473" value="&lt;font style=&quot;font-size: 16px;&quot;&gt;Execution Env&lt;/font&gt;" style="rounded=0;whiteSpace=wrap;html=1;verticalAlign=bottom;fillColor=#999999;strokeColor=#000000;dashed=1;fontColor=#000000;fontSize=14;fontFamily=CMU Sans Serif;" vertex="1" parent="1">
          <mxGeometry x="370" y="130" width="140" height="104" as="geometry" />
        </mxCell>
        <mxCell id="mEob46jThGOG9od_VYb--467" value="&lt;font color=&quot;#000000&quot; size=&quot;1&quot;&gt;&lt;span style=&quot;font-size: 20px;&quot;&gt;&lt;span&gt;Image&lt;br&gt;Builder&lt;/span&gt;&lt;/span&gt;&lt;/font&gt;" style="rounded=1;whiteSpace=wrap;html=1;fillColor=#FFFFFF;strokeColor=none;fontStyle=0;fontFamily=CMU Sans Serif;" vertex="1" parent="1">
          <mxGeometry x="384.95000000000005" y="140" width="110" height="70" as="geometry" />
        </mxCell>
      </root>
    </mxGraphModel>
  </diagram>
</mxfile>
